<svg xmlns="http://www.w3.org/2000/svg" width="512" height="512" viewBox="0 0 512 512" fill="none">
  <defs>
    <linearGradient id="bgGrad" x1="0" y1="0" x2="512" y2="512" gradientUnits="userSpaceOnUse">
      <stop offset="0%" stop-color="#1E1B4B"/>
      <stop offset="50%" stop-color="#0F172A"/>
      <stop offset="100%" stop-color="#020617"/>
    </linearGradient>
    <linearGradient id="brandGrad" x1="60" y1="60" x2="452" y2="452" gradientUnits="userSpaceOnUse">
      <stop offset="0%" stop-color="#818CF8"/>
      <stop offset="50%" stop-color="#6366F1"/>
      <stop offset="100%" stop-color="#4338CA"/>
    </linearGradient>
    <linearGradient id="accentGrad" x1="150" y1="100" x2="380" y2="380" gradientUnits="userSpaceOnUse">
      <stop offset="0%" stop-color="#38BDF8"/>
      <stop offset="100%" stop-color="#818CF8"/>
    </linearGradient>
    <filter id="shadow" x="-10%" y="-10%" width="120%" height="120%">
      <feDropShadow dx="0" dy="12" stdDeviation="16" flood-color="#4338CA" flood-opacity="0.35"/>
    </filter>
    <filter id="glow" x="-20%" y="-20%" width="140%" height="140%">
      <feGaussianBlur stdDeviation="8" result="blur"/>
      <feComposite in="SourceGraphic" in2="blur" operator="over"/>
    </filter>
  </defs>

  <!-- Background Card -->
  <rect width="512" height="512" rx="112" fill="url(#bgGrad)"/>
  
  <!-- Subtle Inner Border -->
  <rect x="2" y="2" width="508" height="508" rx="110" stroke="url(#brandGrad)" stroke-opacity="0.3" stroke-width="4" fill="none"/>

  <!-- Main Emblem Container -->
  <g filter="url(#shadow)">
    <!-- Book/Document Left Page -->
    <path d="M 120 160 C 120 160, 180 144, 256 168 L 256 368 C 180 344, 120 360, 120 360 Z" fill="url(#brandGrad)" opacity="0.9"/>
    
    <!-- Book/Document Right Page -->
    <path d="M 392 160 C 392 160, 332 144, 256 168 L 256 368 C 332 344, 392 360, 392 360 Z" fill="url(#brandGrad)"/>
    
    <!-- Spine Line -->
    <line x1="256" y1="168" x2="256" y2="368" stroke="#EEF2FF" stroke-width="6" stroke-linecap="round"/>

    <!-- Document Lines (Left Page) -->
    <line x1="160" y1="210" x2="220" y2="200" stroke="#E0E7FF" stroke-width="6" stroke-linecap="round" opacity="0.8"/>
    <line x1="150" y1="250" x2="220" y2="240" stroke="#E0E7FF" stroke-width="6" stroke-linecap="round" opacity="0.8"/>
    <line x1="150" y1="290" x2="210" y2="280" stroke="#E0E7FF" stroke-width="6" stroke-linecap="round" opacity="0.8"/>

    <!-- Checkmark on Right Page -->
    <path d="M 290 250 L 320 280 L 370 210" stroke="#FFFFFF" stroke-width="14" stroke-linecap="round" stroke-linejoin="round" fill="none"/>
  </g>

  <!-- AI Sparkle 4-point Star Top Right -->
  <g transform="translate(365, 115) scale(1.3)" filter="url(#glow)">
    <path d="M 20 0 C 20 10, 25 15, 40 20 C 25 25, 20 30, 20 40 C 20 30, 15 25, 0 20 C 15 15, 20 10, 20 0 Z" fill="url(#accentGrad)"/>
  </g>

  <!-- Secondary Small Sparkle -->
  <g transform="translate(115, 110) scale(0.75)">
    <path d="M 20 0 C 20 10, 25 15, 40 20 C 25 25, 20 30, 20 40 C 20 30, 15 25, 0 20 C 15 15, 20 10, 20 0 Z" fill="#A5B4FC" opacity="0.9"/>
  </g>
</svg>